<svg xmlns="http://www.w3.org/2000/svg" viewBox="0 0 277.35 50"><g id="Layer_2" data-name="Layer 2"><g id="Layer_1-2" data-name="Layer 1"><path d="M257.14,38.23,257.58,24c0-10.8-4.68-14.82-17.42-14.82-6.15,0-11.57.83-14.93,2.22l.44,8.59A25.73,25.73,0,0,1,236.94,17c5.86,0,7.47,2.21,7.47,7.61v.84H242.5c-14.34,0-21.08,4.15-21.08,11.77,0,7.89,4.1,12.46,16,12.46,6.29,0,12.29-.83,20.35-.83a62.94,62.94,0,0,1-.59-10.66Zm-16.83,4.15c-4.39,0-6.3-1.38-6.3-4.85s2.34-5.26,8.35-5.26h1.75c0,3.19-.14,7.06.15,9.7a16.73,16.73,0,0,1-4,.41ZM129.78,42c-7.17,0-11-3.47-11-9v-.28c1.32,0,3.81.13,5.28.13,12.73,0,19.17-3.73,19.17-11.9,0-7.07-5.41-11.64-17-11.64-14.2,0-19.76,6-21.08,16.62-2-.14-4.39-.14-7.47-.14V24C97.72,13.16,93,9.15,80.3,9.15c-6.15,0-11.57.83-14.93,2.21L65.81,20A25.73,25.73,0,0,1,77.08,17c5.86,0,7.62,2.21,7.62,7.62v.83H82.79c-14.34,0-21.08,4.15-21.08,11.77,0,7.9,4.1,12.47,16,12.47C84,49.73,90,48.9,98,48.9a68.43,68.43,0,0,1-.58-10.81c0-1.66.14-3.6.14-5.81,3.37,0,5.86.13,7.47.13,1.17,12.74,8.2,17.32,22.54,17.32,5.28,0,10.69-.84,13.64-2.08l-.44-8.59a22.43,22.43,0,0,1-11,2.91Zm-49.19.41c-4.39,0-6.29-1.38-6.29-4.85s2.34-5.26,8.34-5.26H84.4c0,3.19-.15,7.06.14,9.7a17.56,17.56,0,0,1-4,.41ZM118.51,25.9c0-5.4,1.75-9.42,7-9.42,2.93,0,5,1.52,5,4.16,0,3.73-2.63,5.54-8.19,5.54a32,32,0,0,1-3.81-.14V25.9ZM216.15,31V23.41c0-9.83-4.54-14.13-17.42-14.13-7.17,0-12.29,1.25-20.35,1.25.44,6.92.44,15.37.44,20.63s-.15,15-.44,18h13.76c-.29-3.05-.58-12.05-.58-18L191.7,18a17,17,0,0,1,5-.83c4.83,0,6.44,2.08,6.44,8V31c0,5.41-.14,15-.44,18h13.77c0-3.05-.3-11.91-.3-18Zm-43.47,9.42.58,8.59a40.15,40.15,0,0,1-8.78.83c-9.08,0-13.91-3.6-13.91-12.46l.14-18.7H146c.15-1.94,0-4.57,0-6.51,7-1.11,9.23-4.85,10.39-12.19h7.76c-.29,3.05-.43,7.34-.58,10.39h8.2V18.7h-8.35V33.8c0,5.81,1.32,7.47,5.42,7.47a7.22,7.22,0,0,0,3.8-.83ZM16,5.68a6.6,6.6,0,0,1,4.68,1.8l7.62,7.21,7.61-7.21a6.63,6.63,0,0,1,4.68-1.8,6.86,6.86,0,0,1,4.68,1.8l9.37,8.87a6,6,0,0,1,0,8.86L28.33,50,2,25.07A6,6,0,0,1,2,16.2l9.37-8.86A7.08,7.08,0,0,1,16,5.68Zm243.75,3.6H267v1.39h-2.78v6.92h-1.75V10.67h-2.79l.15-1.39Zm8.78,0h2.34l1.17,3.6.88,3.19.88-3.19L275,9.28h2.35v8.31h-1.62v-3c0-1.53.15-3.74.15-3.74s-.58,1.94-1,3.6l-1,3.18h-1.62l-1-3.18a35.53,35.53,0,0,1-1-3.6c0,1.24.07,2.49.14,3.74v3h-1.61V9.28h-.15Z" style="fill:#75429a"/></g></g></svg>