<svg xmlns="http://www.w3.org/2000/svg" viewBox="0 0 133.49 125"><g id="Layer_2" data-name="Layer 2"><g id="Layer_1-2" data-name="Layer 1"><path d="M65.74,18.48V46.85H48.08a1.52,1.52,0,0,0-.19,1.08c0,5.2,0,10.4,0,15.6,0,.8-.14,1.09-1,1.09q-13.3-.06-26.6,0c-.8,0-1.05-.2-1-1,0-5.2,0-10.4,0-15.6a2.18,2.18,0,0,0-.08-1,1.65,1.65,0,0,0-1-.11c-5.31,0-10.62,0-15.93,0-.65,0-.92-.11-.92-.86,0-8.89,0-17.79,0-26.69,0-.24,0-.48,0-.84h17.7a2.09,2.09,0,0,0,.14-1.09c0-5.2,0-10.4,0-15.6,0-.8.21-1,1-1q13.35,0,26.69,0c.78,0,1,.22,1,1,0,5.2,0,10.4,0,15.59v1.11ZM49.56,25.36a17.47,17.47,0,0,0-17.87-10c-7.19.7-12.6,6-13.92,10h5c2.53,0,5.06,0,7.59,0a2.4,2.4,0,0,0,2.23-1.23,2.24,2.24,0,0,0-.34-2.5c-.16-.23-.34-.44-.49-.67A2.29,2.29,0,0,1,32,18.3a2.08,2.08,0,0,1,2.4-.66,2.17,2.17,0,0,1,1.42,2.13,3.3,3.3,0,0,1-.85,1.94,2.21,2.21,0,0,0,1.72,3.63,6.26,6.26,0,0,0,.75,0H49.56ZM17.1,26.61c-3.14,7.52.3,16.28,5.62,19.77.11-.16.22-.32.31-.48,1.22-2.25,2.44-4.49,3.65-6.74,1.36-2.52,2.74-5,4.05-7.57.95-1.83,0-3.68-1.9-3.87C24.94,27.32,21,27,17.1,26.61ZM44.51,46.47a3.65,3.65,0,0,0,.39-.23,17.43,17.43,0,0,0,5.53-19,.71.71,0,0,0-.9-.57c-3.57.36-7.13.72-10.7,1-2.32.2-3.36,2-2.26,4.06s2.32,4.31,3.48,6.46C41.52,40.92,43,43.65,44.51,46.47ZM24,47.23a1,1,0,0,0,.54.54,17.83,17.83,0,0,0,18.2,0c.54-.29.55-.56.23-1C40.3,42.87,37.68,39,35,35.1c-1.06-1.54-1.81-1.51-2.88.06L28.88,40Z" style="fill:#1799d3"/><path d="M79.08,0c15,7.32,29.85,7.22,44.79.06a18,18,0,0,1,1.46,3.3,43.74,43.74,0,0,1,2.48,13.55,54.24,54.24,0,0,1-3,20.32,51.19,51.19,0,0,1-14.64,22A53.3,53.3,0,0,1,102,65a1.08,1.08,0,0,1-1.22-.1A47.88,47.88,0,0,1,86.44,52.55a53,53,0,0,1-10.22-22.3A51.52,51.52,0,0,1,77.1,4.86,23.63,23.63,0,0,1,79.08,0Zm27.54,10H96.29c-.11,0-.22,0-.33,0a57.69,57.69,0,0,1-12.53-2.6c-1.54-.51-1.53-.52-2,1a36,36,0,0,0-1.22,17A54.87,54.87,0,0,0,87.08,45a40.88,40.88,0,0,0,13.8,14.44.87.87,0,0,0,1.11.06,41.1,41.1,0,0,0,9.84-8.66A51,51,0,0,0,120.72,34c2.4-7.32,3.34-14.77,1.75-22.41A20.54,20.54,0,0,0,121,7a64.64,64.64,0,0,1-6.39,1.83A47.67,47.67,0,0,1,106.62,10Z" style="fill:#1799d3"/><path d="M12.06,91.35c.15.3.42.22.66.26,3.89.61,5.83,4.72,3.67,7.76a5,5,0,0,1-3.91,2.08c-3.55.28-7.11.07-10.67.13-.33,0-.66,0-1,0s-.53-.2-.39-.66H2.9C3,95.23,3,89.64,2.92,84a8.22,8.22,0,0,0-2-.1c-.26,0-.61.09-.6-.36s.32-.31.56-.31q5.42,0,10.83,0a6.4,6.4,0,0,1,1.07.14A3.59,3.59,0,0,1,16.07,87a4.12,4.12,0,0,1-3.21,4A1.47,1.47,0,0,0,12.06,91.35Zm-5,9.37c2.86.36,4.47-.13,5.24-1.55.88-1.61.78-5-.27-6.16-1.39-1.52-3.23-1.06-5-1.14ZM7.09,84v7c.76,0,1.46,0,2.15,0a2.45,2.45,0,0,0,2.58-2.5,7.87,7.87,0,0,0-.14-2.9,1.92,1.92,0,0,0-1.41-1.49A12,12,0,0,0,7.09,84Z" style="fill:#282425"/><path d="M0,124.67c-.14-1,.59-.61,1-.66a9.22,9.22,0,0,1,1.39,0,167.78,167.78,0,0,0,0-16.95H.09a.74.74,0,0,1,0-.68c2.21,0,4.43,0,6.64,0a34.49,34.49,0,0,1,5.66.19c2,.35,3.14,1.5,3.31,3.2A4,4,0,0,1,13.13,114a4,4,0,0,0-1.36.6c.53.14,1,.23,1.41.36a4.86,4.86,0,0,1,3.69,5.25,4.8,4.8,0,0,1-4.36,4.33,10.39,10.39,0,0,1-1.57.13ZM6.71,124c1.89-.1,3.94.47,5.07-1.45a5.78,5.78,0,0,0,0-6.11c-1.15-1.88-3.25-1.33-5.1-1.42Zm0-16.8v7a9.82,9.82,0,0,0,2.77-.1,2.15,2.15,0,0,0,1.84-1.8,7.82,7.82,0,0,0,0-3.47,2,2,0,0,0-1.65-1.56A14.84,14.84,0,0,0,6.74,107.15Z" style="fill:#282425"/><path d="M76.84,123.92c1.89.19,1.89.19,1.92.7H71.25c-.27-.62.13-.64.59-.63s.77,0,1.14,0c.18-1,.17-16,0-16.95h-1.3c-.27,0-.53,0-.51-.37s.25-.31.48-.31h5.19v7.46a5.44,5.44,0,0,1,5.68-1.88,3.52,3.52,0,0,1,3.08,3.68c.07,2.48,0,4.95.06,7.43,0,.27,0,.55,0,.83.57.31,1.24-.13,1.75.27.1.08.09.32-.07.49H79.91c-.13-.63-.13-.64.55-.65h1.2c.24-.22.17-.46.17-.67,0-2.56,0-5.11,0-7.67,0-.14,0-.28,0-.42-.09-1-.29-1.84-1.34-2.19a2.76,2.76,0,0,0-2.9,1,3.44,3.44,0,0,0-.69,1.85C76.68,118.55,76.83,121.22,76.84,123.92Z" style="fill:#282425"/><path d="M127.78,113.46v-6.33a5.15,5.15,0,0,0-1.45-.09c-.21,0-.46,0-.49-.31s.24-.37.5-.37h5.26v17.51c.65.26,1.29-.06,1.84.23.08,0,0,.31.05.58h-5.62l-.08-1.49a4.86,4.86,0,0,1-4.06,1.79,4.76,4.76,0,0,1-4.21-2.29,7.7,7.7,0,0,1-.09-8.23C120.89,111.86,125.35,110.75,127.78,113.46Zm.11,4.89a15.45,15.45,0,0,0-.25-3.39,2.38,2.38,0,0,0-2.65-2,2.27,2.27,0,0,0-2.32,2.17,21.47,21.47,0,0,0,0,6.55c.23,1.45,1,2.13,2.21,2.15a2.65,2.65,0,0,0,2.77-2.15A19.38,19.38,0,0,0,127.89,118.35Z" style="fill:#282425"/><path d="M57.34,118.49c.62-.22.74.15.86.64.57,2.35,1.83,4.11,4.27,4.75a4.66,4.66,0,0,0,3.63-.42,2.7,2.7,0,0,0,.07-4.8,33,33,0,0,0-4.69-2.13,9.69,9.69,0,0,1-1.91-1,5.11,5.11,0,0,1-2-5.45,5.49,5.49,0,0,1,4.6-3.95,11.44,11.44,0,0,1,6.11.85.61.61,0,0,1,.45.6c0,1.27.14,2.55.21,3.82-.72.33-.89-.07-1-.62a5.09,5.09,0,0,0-4.85-3.84,2.84,2.84,0,0,0-2.81,1.94A2.6,2.6,0,0,0,61.78,112a40.31,40.31,0,0,0,3.83,1.62,13.63,13.63,0,0,1,2.14,1.12,5.07,5.07,0,0,1,2.43,4.8,5.23,5.23,0,0,1-3.24,4.68,10.57,10.57,0,0,1-7.57.23c-2-.55-2-.56-2-2.63C57.32,120.7,57.34,119.62,57.34,118.49Z" style="fill:#2d292a"/><path d="M36.81,99.83a6.13,6.13,0,0,1-5.52,2,3.19,3.19,0,0,1-3.23-3.49c0-2.56,0-5.12,0-7.68v-.84a4.11,4.11,0,0,0-1.37-.12c-.26,0-.61.1-.59-.36s.32-.32.56-.32h5.13c.21.25.08.6.08.91-.05,2.78-.08,5.56,0,8.34a2.07,2.07,0,0,0,1.34,2.18,2.72,2.72,0,0,0,2.93-.88,3.08,3.08,0,0,0,.7-1.76c.12-2.66.06-5.33,0-8-.65-.23-1.27,0-1.9-.16-.06-.29-.21-.63.3-.63h5.38c0,3.93-.12,7.87,0,11.87h1.78c.22.55.06.73-.45.73-1.61,0-3.22,0-4.92,0C36.85,101.1,37.07,100.5,36.81,99.83Z" style="fill:#2d292a"/><path d="M74.61,89.47c-.73.26-.82-.1-.92-.61a6,6,0,0,0-5.54-5.12A5,5,0,0,0,63,87.47,19.15,19.15,0,0,0,62.85,97c.86,3.62,4.37,5.07,7.61,3.21a6.13,6.13,0,0,0,3.3-4.56c.08-.61.39-.64,1-.5,0,1.58,0,3.18,0,4.78,0,.25-.15.34-.34.41-3.09,1.13-6.24,1.94-9.54,1.14a9.19,9.19,0,0,1-6.91-10.27c.67-5.81,5.6-8.74,10.57-8.4a20.21,20.21,0,0,1,5.42,1.23.88.88,0,0,1,.69,1C74.58,86.55,74.61,88,74.61,89.47Z" style="fill:#2d292a"/><path d="M34.62,112.84c-.18-.57,0-.72.44-.72,1.69,0,3.39,0,5.2,0V123.9c1.86.23,1.86.23,1.85.76-1.79.06-3.59-.06-5.37.14a11.24,11.24,0,0,1-.25-1.87,6.16,6.16,0,0,1-6.05,1.9,3,3,0,0,1-2.74-3.32c0-2.86,0-5.72,0-8.6-.65-.24-1.27,0-1.92-.17,0-.27-.21-.6.31-.6,1.77,0,3.54,0,5.33,0,0,1.38,0,2.76,0,4.14,0,1.73,0,3.45.07,5.17a2,2,0,0,0,1.41,2.14,2.76,2.76,0,0,0,2.91-1,3.21,3.21,0,0,0,.67-1.94c0-2.58,0-5.16,0-7.82Z" style="fill:#282425"/><path d="M101.8,95.32c0,3.77-2.87,6.5-6.83,6.52a6.41,6.41,0,0,1-6.7-6.63c0-3.86,2.78-6.54,6.77-6.55A6.42,6.42,0,0,1,101.8,95.32Zm-4-.07a13.23,13.23,0,0,0-.37-4,2.3,2.3,0,0,0-2.31-1.9,2.25,2.25,0,0,0-2.43,1.86,17.54,17.54,0,0,0,.06,8.15,2.13,2.13,0,0,0,2.39,1.76,2.22,2.22,0,0,0,2.33-1.86A13.77,13.77,0,0,0,97.77,95.25Z" style="fill:#2d292a"/><path d="M110.12,124.67c0-.56,0-.56,1.79-.73.23-1,.27-15.24,0-16.9-.47,0-1,0-1.44,0-.26,0-.44,0-.43-.36s.15-.32.38-.32h5.45c0,5.85-.08,11.7,0,17.63.49,0,.9,0,1.31,0s.51,0,.51.37-.25.31-.47.31Z" style="fill:#282425"/><path d="M56,94.56H47.24A10.71,10.71,0,0,0,47.85,99c.86,1.9,3.45,2.37,5.37,1A5.67,5.67,0,0,0,55,97.68a.88.88,0,0,1,.71.26c0,.06,0,.13,0,.17A6.32,6.32,0,0,1,49,101.8a6.21,6.21,0,0,1-5.46-4.46,6.76,6.76,0,0,1,2-7.33c2.57-2.05,7-1.78,9.09.53A5.54,5.54,0,0,1,56,94.56Zm-4-.83a7.44,7.44,0,0,0-.34-3.13,1.84,1.84,0,0,0-1.81-1.21,1.93,1.93,0,0,0-2,1,7.85,7.85,0,0,0-.53,3.3Z" style="fill:#2d292a"/><path d="M55.39,117.67H46.66c0,1.66-.11,3.28.71,4.74,1,1.76,3.73,2,5.48.54a6.75,6.75,0,0,0,1.54-2.11c.32-.11.48.14.71.16a.78.78,0,0,1,0,.22,6.58,6.58,0,0,1-12.36-1.29,6.52,6.52,0,0,1,2.86-7.24,7,7,0,0,1,7.16,0A5.21,5.21,0,0,1,55.39,117.67Zm-4-.8a7.56,7.56,0,0,0-.24-2.87,1.93,1.93,0,0,0-1.94-1.51,2,2,0,0,0-2.12,1.4,7.41,7.41,0,0,0-.34,3Z" style="fill:#2d292a"/><path d="M109.22,117.68H100.5a10.16,10.16,0,0,0,.67,4.6c.91,1.85,3.7,2.18,5.5.71a6.72,6.72,0,0,0,1.6-2.16c.33-.09.49.15.72.18a1,1,0,0,1,0,.22,6.24,6.24,0,0,1-6.48,3.73,6,6,0,0,1-5.59-4.18,6.56,6.56,0,0,1,1.53-7.3,7.14,7.14,0,0,1,8.78-.43A5.21,5.21,0,0,1,109.22,117.68Zm-4-.8a7.15,7.15,0,0,0-.3-3.11,1.89,1.89,0,0,0-1.7-1.27,2,2,0,0,0-2,.86,6.57,6.57,0,0,0-.65,3.52Z" style="fill:#2d292a"/><path d="M20.44,100.92V84.05c-.64-.34-1.36.13-1.92-.32-.07,0,0-.25,0-.47,1.93-.05,3.84,0,5.81-.13v17.74h1.74c.19.5.11.72-.38.72-2.25,0-4.51,0-6.76,0-.47,0-.48-.25-.37-.67Z" style="fill:#2d292a"/><path d="M20.1,107H18.22c-.16-.43-.14-.68.38-.68h5.32V124c.55,0,1,0,1.37,0s.51,0,.49.38-.25.3-.47.3H18.23c-.28-.71.16-.69.6-.68s.77,0,1.27,0C20.18,118.34,20.17,112.74,20.1,107Z" style="fill:#282425"/><path d="M115.27,96.86c.64-.25.79.07.88.6a4.06,4.06,0,0,0,3.36,3.57,3.23,3.23,0,0,0,2.09-.36,1.59,1.59,0,0,0,.08-2.88,11.6,11.6,0,0,0-2.14-.92c-.62-.24-1.25-.47-1.84-.76A3.62,3.62,0,0,1,115.47,92a3.72,3.72,0,0,1,3-3.16,8.9,8.9,0,0,1,5.15.5.5.5,0,0,1,.37.56c0,.94,0,1.89,0,2.85-.57.25-.76,0-.89-.54a3.37,3.37,0,0,0-2.86-2.68,2.43,2.43,0,0,0-1.54.24,1.48,1.48,0,0,0-.9,1.3,1.28,1.28,0,0,0,.93,1.25c1.11.44,2.24.83,3.34,1.3,2.25,1,3.11,2.27,2.88,4.32a4.39,4.39,0,0,1-3.84,3.83,10.06,10.06,0,0,1-5.47-.69.51.51,0,0,1-.39-.55C115.27,99.3,115.27,98.11,115.27,96.86Z" style="fill:#2d292a"/><path d="M112.52,92.73c-.66.27-.78-.12-.91-.6a3.36,3.36,0,0,0-2.89-2.64,2.41,2.41,0,0,0-1.38.19,1.52,1.52,0,0,0-1,1.41,1.32,1.32,0,0,0,1,1.22c1.08.43,2.18.81,3.26,1.26,2.31,1,3.13,2.23,2.91,4.38a4.36,4.36,0,0,1-3.7,3.76,9.88,9.88,0,0,1-5.63-.67.52.52,0,0,1-.37-.57c0-1.19,0-2.38,0-3.6.55-.21.77-.05.88.54a4,4,0,0,0,3.39,3.62,3.12,3.12,0,0,0,2.09-.38,1.57,1.57,0,0,0,0-2.87,11.72,11.72,0,0,0-2-.86c-.69-.27-1.4-.52-2.07-.85A3.58,3.58,0,0,1,104,92.14a3.67,3.67,0,0,1,2.88-3.28,8.67,8.67,0,0,1,5.3.44.51.51,0,0,1,.38.57C112.51,90.81,112.52,91.75,112.52,92.73Z" style="fill:#2d292a"/><path d="M78.12,89.67h-1.8c-.13-.36-.23-.68.32-.68H81.9v2a15.27,15.27,0,0,1,1-1.24,3.21,3.21,0,0,1,2.55-1,2.44,2.44,0,0,1,2,3.48,1.62,1.62,0,0,1-3-.55c0-.39,0-.78,0-1.17,0-.6-.31-.74-.81-.45a2.64,2.64,0,0,0-1,1.27,7.21,7.21,0,0,0-.6,2.5c-.17,2.3-.08,4.6-.05,6.93a11.91,11.91,0,0,0,1.88.15c.15.38.16.65-.4.65q-3.37,0-6.75,0c-.52,0-.51-.26-.41-.69h1.83C78.25,97.13,78.23,93.42,78.12,89.67Z" style="fill:#2d292a"/><path d="M89.86,112.8H88c-.1-.37-.21-.68.35-.67h5.4v11.73c.62.34,1.29-.13,1.8.31.07.06,0,.26,0,.45H88c0-.62,0-.62.62-.63h1.23Z" style="fill:#282425"/><path d="M122,57.74a3.58,3.58,0,1,1,0,7.15,3.58,3.58,0,1,1,0-7.15Zm.07.63a2.94,2.94,0,1,0-.1,5.88,2.94,2.94,0,1,0,.1-5.88Z" style="fill:#229cd4"/><path d="M91.74,110.32a2,2,0,1,1,0-4.06,2,2,0,1,1,0,4.06Z" style="fill:#2d292a"/><path d="M59.21,57.74a3.58,3.58,0,1,1-3.63,3.55A3.58,3.58,0,0,1,59.21,57.74Zm0,.63a2.94,2.94,0,1,0,0,5.88,2.94,2.94,0,1,0,0-5.88Z" style="fill:#229cd4"/><path d="M49.56,25.36H37.39a6.26,6.26,0,0,1-.75,0,2.21,2.21,0,0,1-1.72-3.63,3.3,3.3,0,0,0,.85-1.94,2.17,2.17,0,0,0-1.42-2.13,2.08,2.08,0,0,0-2.4.66A2.29,2.29,0,0,0,31.77,21c.15.23.33.44.49.67a2.24,2.24,0,0,1,.34,2.5,2.4,2.4,0,0,1-2.23,1.23c-2.53,0-5.06,0-7.59,0h-5c1.32-4,6.73-9.29,13.92-10A17.47,17.47,0,0,1,49.56,25.36ZM22.07,22.92h8.2a4.37,4.37,0,0,1-.93-4.64A15.5,15.5,0,0,0,22.07,22.92Zm15,0h8.16a15.2,15.2,0,0,0-7.27-4.63,4.43,4.43,0,0,1,.21,2.44A9.17,9.17,0,0,1,37,22.94Z" style="fill:#f4f8fa"/><path d="M17.1,26.61c3.94.37,7.84.71,11.73,1.11,1.94.19,2.85,2,1.9,3.87-1.31,2.54-2.69,5.05-4.05,7.57-1.21,2.25-2.43,4.49-3.65,6.74-.09.16-.2.32-.31.48C17.4,42.89,14,34.13,17.1,26.61Zm5,15.76a1.33,1.33,0,0,0,.19-.21q3-5.59,5.93-11.18c.31-.59.21-.91-.54-1-2.76-.25-5.52-.53-8.28-.81-.43,0-.64.07-.73.54A14.85,14.85,0,0,0,21.6,42C21.71,42.19,21.81,42.38,22.1,42.37Z" style="fill:#f4f8fa"/><path d="M44.51,46.47c-1.51-2.82-3-5.55-4.46-8.28-1.16-2.15-2.34-4.3-3.48-6.46s-.06-3.86,2.26-4.06c3.57-.29,7.13-.65,10.7-1a.71.71,0,0,1,.9.57,17.43,17.43,0,0,1-5.53,19A3.65,3.65,0,0,1,44.51,46.47Zm.63-4a1.62,1.62,0,0,0,.28-.18,14.75,14.75,0,0,0,3.14-12.64c-.09-.45-.37-.48-.74-.44-2.7.27-5.4.52-8.11.8-1,.1-1.06.28-.57,1.21q2.18,4.08,4.33,8.16C44,40.39,44.57,41.4,45.14,42.46Z" style="fill:#f4f8fa"/><path d="M24,47.23,28.88,40l3.27-4.83c1.07-1.57,1.82-1.6,2.88-.06C37.68,39,40.3,42.87,43,46.75c.32.47.31.74-.23,1a17.83,17.83,0,0,1-18.2,0A1,1,0,0,1,24,47.23Zm3.41-.7a15.62,15.62,0,0,0,12.45,0l-6.22-9.38Z" style="fill:#f4f8fa"/><path d="M106.62,10a47.67,47.67,0,0,0,8-1.22A64.64,64.64,0,0,0,121,7a20.54,20.54,0,0,1,1.49,4.68c1.59,7.64.65,15.09-1.75,22.41a51,51,0,0,1-8.89,16.77A41.1,41.1,0,0,1,102,59.47a.87.87,0,0,1-1.11-.06A40.88,40.88,0,0,1,87.08,45a54.87,54.87,0,0,1-6.91-19.61,36,36,0,0,1,1.22-17c.51-1.51.5-1.5,2-1A57.69,57.69,0,0,0,96,10c.11,0,.22,0,.33,0a.8.8,0,0,0,.23.11,55.71,55.71,0,0,0,8.47.11A3.79,3.79,0,0,0,106.62,10Zm14.12,9.63a29.17,29.17,0,0,0-1.22-8.81c-.18-.56-.36-.74-1-.57a65.44,65.44,0,0,1-15.35,2.37,63.93,63.93,0,0,1-18.61-2.34c-.72-.19-1,0-1.16.64a31.89,31.89,0,0,0-.93,13,49.23,49.23,0,0,0,8,22.2A38.72,38.72,0,0,0,100.82,56.9a1,1,0,0,0,1.33,0,32,32,0,0,0,5.15-4.35C116,43.32,120.28,32.24,120.74,19.63Z" style="fill:#f4f8fa"/><path d="M106.62,10a3.79,3.79,0,0,1-1.63.22,55.71,55.71,0,0,1-8.47-.11.8.8,0,0,1-.23-.11Z" style="fill:#229cd4"/><path d="M22.07,22.92a15.5,15.5,0,0,1,7.27-4.64,4.37,4.37,0,0,0,.93,4.64Z" style="fill:#229cd4"/><path d="M37,22.94a9.17,9.17,0,0,0,1.1-2.19,4.43,4.43,0,0,0-.21-2.44,15.2,15.2,0,0,1,7.27,4.63Z" style="fill:#229cd4"/><path d="M22.1,42.37c-.29,0-.39-.18-.5-.33a14.85,14.85,0,0,1-2.93-12.31c.09-.47.3-.58.73-.54,2.76.28,5.52.56,8.28.81.75.07.85.39.54,1q-3,5.6-5.93,11.18A1.33,1.33,0,0,1,22.1,42.37Z" style="fill:#1799d3"/><path d="M45.14,42.46c-.57-1.06-1.13-2.07-1.67-3.09q-2.16-4.08-4.33-8.16c-.49-.93-.42-1.11.57-1.21,2.71-.28,5.41-.53,8.11-.8.37,0,.65,0,.74.44a14.75,14.75,0,0,1-3.14,12.64A1.62,1.62,0,0,1,45.14,42.46Z" style="fill:#1799d3"/><path d="M27.39,46.53l6.23-9.39,6.22,9.38A15.62,15.62,0,0,1,27.39,46.53Z" style="fill:#1799d3"/><path d="M120.74,19.63c-.46,12.61-4.71,23.69-13.44,32.92a32,32,0,0,1-5.15,4.35,1,1,0,0,1-1.33,0A38.72,38.72,0,0,1,90.45,46.08a49.23,49.23,0,0,1-8-22.2,31.89,31.89,0,0,1,.93-13c.21-.69.44-.83,1.16-.64a63.93,63.93,0,0,0,18.61,2.34,65.44,65.44,0,0,0,15.35-2.37c.64-.17.82,0,1,.57A29.17,29.17,0,0,1,120.74,19.63Zm-19.2-.46a4.72,4.72,0,0,0-4.25-2.56A5.27,5.27,0,0,0,91.71,20a5.1,5.1,0,0,0,2.31,6,12.69,12.69,0,0,0,5.11,1.61c1.43.22,2.89.22,4.29.56s1.51.67.78,1.9a.53.53,0,0,0-.08.23,21.66,21.66,0,0,0-.08,3.14,5.79,5.79,0,0,0,3.13-1.28,3.88,3.88,0,0,0-.18-6.19,8.2,8.2,0,0,0-3.92-1.5c-1.34-.19-2.69-.34-4-.54a6.22,6.22,0,0,1-2.73-.93,1.68,1.68,0,0,1-.64-2c.46-.74,1-.33,1.61-.12a3.37,3.37,0,0,0,3.24-.1c-1-.59-2.15-.65-3-1.5C98.9,19.17,100.23,19.55,101.54,19.17Zm2.1,22.47a2.11,2.11,0,0,0,1.44-.29,3,3,0,0,0,2-2.65,3,3,0,0,0-1.67-2.79,5.21,5.21,0,0,0-1.79-.65c-1.34-.23-2.68-.43-4-.67-.43-.08-1-.15-.65-.83a3.61,3.61,0,0,0-.79-2.68.5.5,0,0,0-.32,0,2.68,2.68,0,0,0-2.25,3.81,3.36,3.36,0,0,0,1.4,1.6,7.84,7.84,0,0,0,3.17.92c1.07.15,2.15.24,3.22.41.51.08,1.15.34.75.95C103.48,39.68,103.92,40.66,103.64,41.64Zm.21-22.45a10.69,10.69,0,0,1,0-2.11c0-.61-.19-1-.87-1.1a2.79,2.79,0,0,1-.87-.29c-.55-.24-1.09-.54-1.66-.75-.38-.15-.81-.13-1,.33s-.32.88.21,1.08a5.43,5.43,0,0,1,2.23,2c.71.92.73.9-.27,1.43,0,0,0,.1,0,.15.68.25,1.65.07,2,1.21a15.15,15.15,0,0,0-2.61-.81c.41.94.32,1.05-1.36,1.63-.13,1.15,0,1.26,1,1.35a9.36,9.36,0,0,1,1.41.15c1.13.29,2.1.26,2.69-1,.08-.16.28-.26.43-.38l3.1-2.65c.66-.58.76-1.19.33-1.73a1.39,1.39,0,0,0-1.93-.31c-.53.35-1,.78-1.53,1.15C104.76,18.87,104.46,19.24,103.85,19.19ZM99.71,39.56a2.62,2.62,0,0,0-.5,5.15A14.4,14.4,0,0,1,103,46.39a1,1,0,0,1,.49,1.19,3.18,3.18,0,0,0,0,1.67,2.66,2.66,0,0,0,2-1.9,2.16,2.16,0,0,0-.94-2.46,9.78,9.78,0,0,0-1.41-.88c-1-.48-2-.9-3-1.35-.37-.16-.76-.34-.55-.84A5.9,5.9,0,0,0,99.71,39.56Zm3.42-5.49c0-1.56,0-3,0-4.39,0-.41-.25-.53-.56-.6a10,10,0,0,0-2.56-.22,1.07,1.07,0,0,0-1,1.7,9.46,9.46,0,0,1,1,2.62c0,.23.11.45.37.49Zm-2.32,12.1c-.11,2.36.14,4.65.15,6.95,0,.54.17.92.8.92s.82-.39.84-1c0-1.52.1-3,.14-4.57S102.44,46.55,100.81,46.17ZM102.9,43V39.15c0-.22,0-.51-.25-.55a4.39,4.39,0,0,0-2.1-.14c0,.93.08,1.82.14,2.71,0,.31,0,.69.34.88Zm-3.14,9.85c-.3-1.42.8-2.73.25-4.18A2.45,2.45,0,0,0,99.76,52.82Z" style="fill:#1799d3"/><path d="M122.74,61.6l1,1.63c-.41.24-.6,0-.77-.25s-.49-.74-.72-1.12a.66.66,0,0,0-.79-.29c-.34.07-.3.35-.31.6s.07.76-.24,1.13c-.51-1.22-.19-2.52-.31-3.85a12.83,12.83,0,0,1,2.62,0c.43,0,.56.41.61.79a1,1,0,0,1-.43,1.09A4.9,4.9,0,0,1,122.74,61.6Zm-.59-1.88c-.32.1-.77-.19-.93.31-.08.28-.16.67.07.86.41.34.95.16,1.43.11a.62.62,0,0,0,.09-1.22A3.6,3.6,0,0,0,122.15,59.72Z" style="fill:#229cd4"/><path d="M60,61.58c.13.65.67,1.05.88,1.65-.33.23-.52.06-.68-.2s-.43-.65-.62-1a.8.8,0,0,0-1.08-.43c-.33.54.16,1.24-.51,1.87a23.79,23.79,0,0,1-.12-4.12h2.39A.72.72,0,0,1,61,60a1.08,1.08,0,0,1-.28,1.22A5.39,5.39,0,0,1,60,61.58ZM58.49,61c.47,0,.88,0,1.29,0a.62.62,0,0,0,.64-.63.6.6,0,0,0-.62-.63,3.1,3.1,0,0,0-1.32.06A1.93,1.93,0,0,0,58.49,61Z" style="fill:#229cd4"/><path d="M101.54,19.17c-1.31.38-2.64,0-4,.21.84.85,2,.91,3,1.5a3.37,3.37,0,0,1-3.24.1c-.56-.21-1.15-.62-1.61.12a1.68,1.68,0,0,0,.64,2A6.22,6.22,0,0,0,99,24c1.35.2,2.7.35,4,.54a8.2,8.2,0,0,1,3.92,1.5,3.88,3.88,0,0,1,.18,6.19A5.79,5.79,0,0,1,104,33.52a21.66,21.66,0,0,1,.08-3.14.53.53,0,0,1,.08-.23c.73-1.23.61-1.56-.78-1.9s-2.86-.34-4.29-.56A12.69,12.69,0,0,1,94,26.08a5.1,5.1,0,0,1-2.31-6,5.27,5.27,0,0,1,5.58-3.43A4.72,4.72,0,0,1,101.54,19.17Zm-3.89-1.78c1.34,1,1.34,1,1.88.34A2.66,2.66,0,0,0,97.65,17.39Z" style="fill:#f4f8fa"/><path d="M103.64,41.64c.28-1-.16-2,.48-2.91.4-.61-.24-.87-.75-.95-1.07-.17-2.15-.26-3.22-.41A7.84,7.84,0,0,1,97,36.45a3.36,3.36,0,0,1-1.4-1.6A2.68,2.68,0,0,1,97.83,31a.5.5,0,0,1,.32,0,3.61,3.61,0,0,1,.79,2.68c-.32.68.22.75.65.83,1.34.24,2.68.44,4,.67a5.21,5.21,0,0,1,1.79.65,3,3,0,0,1,1.67,2.79,3,3,0,0,1-2,2.65A2.11,2.11,0,0,1,103.64,41.64Z" style="fill:#f4f8fa"/><path d="M103.85,19.19c.61,0,.91-.32,1.25-.57.52-.37,1-.8,1.53-1.15a1.39,1.39,0,0,1,1.93.31c.43.54.33,1.15-.33,1.73l-3.1,2.65c-.15.12-.35.22-.43.38-.59,1.22-1.56,1.25-2.69,1a9.36,9.36,0,0,0-1.41-.15c-1.09-.09-1.18-.2-1-1.35,1.68-.58,1.77-.69,1.36-1.63a15.15,15.15,0,0,1,2.61.81c-.3-1.14-1.27-1-2-1.21,0,0,0-.13,0-.15,1-.53,1-.51.27-1.43a5.43,5.43,0,0,0-2.23-2c-.53-.2-.35-.71-.21-1.08s.6-.48,1-.33c.57.21,1.11.51,1.66.75A2.79,2.79,0,0,0,103,16c.68.08.86.49.87,1.1A10.69,10.69,0,0,0,103.85,19.19Z" style="fill:#f4f8fa"/><path d="M99.71,39.56a5.9,5.9,0,0,1-.06,2.26c-.21.5.18.68.55.84,1,.45,2,.87,3,1.35a9.78,9.78,0,0,1,1.41.88,2.16,2.16,0,0,1,.94,2.46,2.66,2.66,0,0,1-2,1.9,3.18,3.18,0,0,1,0-1.67,1,1,0,0,0-.49-1.19,14.4,14.4,0,0,0-3.78-1.68,2.62,2.62,0,0,1,.5-5.15Z" style="fill:#f4f8fa"/><path d="M103.13,34.07l-2.65-.4c-.26,0-.32-.26-.37-.49a9.46,9.46,0,0,0-1-2.62,1.07,1.07,0,0,1,1-1.7,10,10,0,0,1,2.56.22c.31.07.57.19.56.6C103.12,31.09,103.13,32.51,103.13,34.07Z" style="fill:#f4f8fa"/><path d="M100.81,46.17c1.63.38,2,.8,1.93,2.33s-.11,3-.14,4.57c0,.58-.17,1-.84,1s-.79-.38-.8-.92C101,50.82,100.7,48.53,100.81,46.17Z" style="fill:#f4f8fa"/><path d="M102.9,43,101,42.05c-.37-.19-.32-.57-.34-.88-.06-.89-.09-1.78-.14-2.71a4.39,4.39,0,0,1,2.1.14c.28,0,.25.33.25.55Z" style="fill:#f4f8fa"/><path d="M99.76,52.82a2.45,2.45,0,0,1,.25-4.18C100.56,50.09,99.46,51.4,99.76,52.82Z" style="fill:#f4f8fa"/><path d="M97.65,17.39a2.66,2.66,0,0,1,1.88.34C99,18.36,99,18.36,97.65,17.39Z" style="fill:#229cd4"/></g></g></svg>