<svg xmlns="http://www.w3.org/2000/svg" viewBox="0 0 228.33 75"><g id="Layer_2" data-name="Layer 2"><g id="Layer_1-2" data-name="Layer 1"><path d="M39.9,13.63a6,6,0,0,0,3.73-5.88C43.63,4.5,42.1,1.39,39.9,0c-2.2,1.4-3.73,4.52-3.73,7.75A6,6,0,0,0,39.9,13.63Z" style="fill:#4fb74a"/><path d="M31.77,28.76a4.66,4.66,0,0,0-1.61-5.18,7,7,0,0,0-6.44-1.69A7.27,7.27,0,0,0,26.43,28h0A4.61,4.61,0,0,0,31.77,28.76Z" style="fill:#4fb74a"/><path d="M21.36,33.64a4.1,4.1,0,0,0-3.7-2.94,6.26,6.26,0,0,0-5.49,1.95,6.4,6.4,0,0,0,5,3.08h0A4.07,4.07,0,0,0,21.36,33.64Z" style="fill:#4fb74a"/><path d="M32.28,21.89a5.12,5.12,0,0,0,4.58,3.89A5.15,5.15,0,0,0,38.43,20c-.84-2.65-2.85-4.85-5-5.44a8.06,8.06,0,0,0-1.1,7.35Z" style="fill:#4fb74a"/><path d="M47.39,11.31h0a4.38,4.38,0,0,0,3.81-3.26,6.79,6.79,0,0,0-.92-6.14,6.78,6.78,0,0,0-4.21,4.56A4.35,4.35,0,0,0,47.39,11.31Z" style="fill:#4fb74a"/><path d="M28.58,8a4.32,4.32,0,0,0,3.8,3.27,4.27,4.27,0,0,0,1.34-4.84,6.66,6.66,0,0,0-4.21-4.55A6.73,6.73,0,0,0,28.59,8Z" style="fill:#4fb74a"/><path d="M22.17,41.43h0a3.61,3.61,0,0,0,3-2.9A3.6,3.6,0,0,0,21.3,37a5.65,5.65,0,0,0-4.13,3.13A5.63,5.63,0,0,0,22.17,41.43Z" style="fill:#4fb74a"/><path d="M51.39,17.89h0A5.31,5.31,0,0,0,57,15.32a8.32,8.32,0,0,0,.95-7.53,8.18,8.18,0,0,0-6.48,3.93A5.28,5.28,0,0,0,51.39,17.89Z" style="fill:#4fb74a"/><path d="M58.46,37a3.62,3.62,0,0,0-3.92,1.54h0a3.66,3.66,0,0,0,3,2.9,5.59,5.59,0,0,0,5-1.32A5.56,5.56,0,0,0,58.46,37Z" style="fill:#4fb74a"/><path d="M61.4,22.51a5,5,0,0,0-3.16,4.82l0,0a4.89,4.89,0,0,0,5.67.81,7.68,7.68,0,0,0,4.5-5.44A7.65,7.65,0,0,0,61.4,22.51Z" style="fill:#4fb74a"/><path d="M67.61,32.65a6.37,6.37,0,0,0-5.49-1.94,4,4,0,0,0-3.7,2.93h0a4,4,0,0,0,4.24,2.1A6.28,6.28,0,0,0,67.61,32.65Z" style="fill:#4fb74a"/><path d="M22.8,15.35a5.39,5.39,0,0,0,5.6,2.57,5.38,5.38,0,0,0-.07-6.17c-1.57-2.39-4.17-4-6.48-3.93a8.35,8.35,0,0,0,.95,7.53Z" style="fill:#4fb74a"/><path d="M58.05,20.2h0a4,4,0,0,0,4.76-.7,6.39,6.39,0,0,0,2.42-5.43,6.57,6.57,0,0,0-5.75,1.5A4.23,4.23,0,0,0,58.05,20.2Z" style="fill:#4fb74a"/><path d="M48,28.76A4.6,4.6,0,0,0,53.33,28,7.34,7.34,0,0,0,56,21.89a7.26,7.26,0,0,0-6.44,1.69A4.64,4.64,0,0,0,48,28.76Z" style="fill:#4fb74a"/><path d="M41.36,20a5.15,5.15,0,0,0,1.58,5.8h0a5.29,5.29,0,0,0,4.57-3.9,8,8,0,0,0-1.1-7.34A8.08,8.08,0,0,0,41.36,20Z" style="fill:#4fb74a"/><path d="M129.76,43.63c0,7.27,3.66,13,10.61,13a8.84,8.84,0,0,0,7.54-3.82l.17,0h0v2c0,5.51-3.36,7.64-7.57,7.64A21.4,21.4,0,0,1,133.09,61V66.4a29.29,29.29,0,0,0,8.12,1.18c7.76,0,12.92-3.2,12.92-14.21V29.64a35.81,35.81,0,0,0-8.82-1.21C134.44,28.43,129.76,35.74,129.76,43.63Zm18-1c0,6.17-2.41,8.75-5.89,8.75s-5.49-3-5.49-8.23,3-9.77,8.71-9.77a10.29,10.29,0,0,1,2.67.29Z" style="fill:#1d82c3"/><path d="M175.16,28.33a8.86,8.86,0,0,0-7.87,4.41h-.11L166.89,29h-5.75c.08,1.1.3,5.88.3,8.37v18.6h6.44V39.67c0-3.31,1.79-6,5.16-6s5.16,2.61,5.16,6V56h6.41V38.4C184.61,32.81,181.24,28.33,175.16,28.33Z" style="fill:#1d82c3"/><path d="M120.75,18.11a3.89,3.89,0,1,0,4,3.89A4,4,0,0,0,120.75,18.11Z" style="fill:#1d82c3"/><path d="M214.6,47.05V29.55a36,36,0,0,0-8.82-1.21c-10.87,0-15.56,7.31-15.56,15.2,0,7.28,3.63,13,10.62,13a8.85,8.85,0,0,0,8.27-5.07h.15l.37,4.5h5.78A66.25,66.25,0,0,1,214.6,47.05Zm-6.4-4.45c0,6.17-2.42,8.75-5.9,8.75s-5.49-3-5.49-8.23,3.08-9.77,8.71-9.77a10.6,10.6,0,0,1,2.68.29Z" style="fill:#1d82c3"/><path d="M17,19.54h0a4.09,4.09,0,0,0,4.75.7,4.11,4.11,0,0,0-1.42-4.62,6.37,6.37,0,0,0-5.75-1.51A6.46,6.46,0,0,0,17,19.54Z" style="fill:#4fb74a"/><rect x="117.53" y="29.05" width="6.4" height="26.88" style="fill:#1d82c3"/><path d="M226.3,54.05v-.59a1.14,1.14,0,0,0-.22-.63.84.84,0,0,0-.66-.36,2.11,2.11,0,0,0,.55-.19.86.86,0,0,0,.36-.77,1,1,0,0,0-.62-1,2.58,2.58,0,0,0-1.06-.15l0,0v.08h-1.33v3.91H224V52.83h.55a2,2,0,0,1,.77.11c.25.11.36.45.36.89v.47h.66l0,0A.45.45,0,0,1,226.3,54.05Zm-1-1.84a2.84,2.84,0,0,1-.66.08H224V50.85h.59a1.61,1.61,0,0,1,.84.15h0a.68.68,0,0,1,.26.59A.61.61,0,0,1,225.27,52.21Z" style="fill:#1d82c3"/><path d="M228.33,52.37a3.49,3.49,0,0,0-1.06-2.53,3.59,3.59,0,0,0-2.53-1,3.4,3.4,0,0,0-2.52,1A3.58,3.58,0,0,0,224.71,56a3.41,3.41,0,0,0,2.52-1.06h0A3.68,3.68,0,0,0,228.33,52.37Zm-3.61,3.13a3,3,0,0,1-2.15-.92,3.08,3.08,0,0,1-.88-2.21,3,3,0,0,1,.88-2.16h0a2.84,2.84,0,0,1,2.15-.92,3,3,0,0,1,2.16.92,3.15,3.15,0,0,1,0,4.37A2.88,2.88,0,0,1,224.72,55.5Z" style="fill:#1d82c3"/><path d="M.37,65.52c-.22.17-.37.22-.37.33H0A.1.1,0,0,0,.11,66c.07,0,.17-.07.33-.11a109.65,109.65,0,0,1,31-6.39c0-.11.11-.77.11-1.25a16.6,16.6,0,0,0-.15-2.27C17,57.26,7,61.5.37,65.52Z" style="fill:#4fb74a"/><path d="M24.23,31.62c-.4,0-.55.22-.55.44,0,.59.59,1.22,1.39,2.21,2.71,3.3,8.72,9.25,8.72,23.91,0,7.6-1.25,10.76-1.25,14.32,0,1.62.33,2.46,1.17,2.46,1.91,0,5.13-8,5.13-17.63C38.84,37.21,26.17,31.62,24.23,31.62Z" style="fill:#1d82c3"/><path d="M15.89,28.13l0,0a4.91,4.91,0,0,0,5.67-.81,5,5,0,0,0-3.17-4.81,7.51,7.51,0,0,0-7,.17A7.62,7.62,0,0,0,15.89,28.13Z" style="fill:#4fb74a"/><path d="M79.39,65.52h0c-6.59-4-16.59-8.26-31.06-9.58a16.46,16.46,0,0,0-.15,2.27,7.36,7.36,0,0,0,.11,1.25,109.81,109.81,0,0,1,31,6.39,2.08,2.08,0,0,0,.33.11.1.1,0,0,0,.11-.11C79.76,65.74,79.65,65.71,79.39,65.52Z" style="fill:#4fb74a"/><path d="M44.51,35.66A4.61,4.61,0,1,0,39.9,40.4,4.68,4.68,0,0,0,44.51,35.66Z" style="fill:#f69823"/><path d="M84.07,37.31c0,10.44,7.07,18.95,19.15,18.95a22.67,22.67,0,0,0,7.9-1.21V49.36a18.65,18.65,0,0,1-7.24,1.36c-7.36,0-12.81-5.29-12.81-13.37S96.45,24,103.88,24a17.71,17.71,0,0,1,7.24,1.36V19.58a23,23,0,0,0-7.9-1.22C91.76,18.36,84.07,26.3,84.07,37.31Z" style="fill:#1d82c3"/><path d="M54.73,34.3c.8-1,1.39-1.61,1.39-2.2h0a.44.44,0,0,0-.55-.44C53.63,31.66,41,37.24,41,57.37,41,67,44.18,75,46.09,75c.84,0,1.17-.85,1.17-2.46C47.26,69,46,65.82,46,58.21,46,43.56,52,37.65,54.73,34.3Z" style="fill:#1d82c3"/></g></g></svg>